<svg aria-roledescription="flowchart-v2" role="graphics-document document" viewBox="-8 -8 2938.671875 528.328125" style="max-width: 100%;" xmlns="http://www.w3.org/2000/svg" width="100%" id="graph-div" height="100%" xmlns:xlink="http://www.w3.org/1999/xlink"><style>@import url("https://cdnjs.cloudflare.com/ajax/libs/font-awesome/6.5.1/css/all.min.css");'</style><style>#graph-div{font-family:"trebuchet ms",verdana,arial,sans-serif;font-size:16px;fill:#333;}#graph-div .error-icon{fill:#552222;}#graph-div .error-text{fill:#552222;stroke:#552222;}#graph-div .edge-thickness-normal{stroke-width:2px;}#graph-div .edge-thickness-thick{stroke-width:3.5px;}#graph-div .edge-pattern-solid{stroke-dasharray:0;}#graph-div .edge-pattern-dashed{stroke-dasharray:3;}#graph-div .edge-pattern-dotted{stroke-dasharray:2;}#graph-div .marker{fill:#333333;stroke:#333333;}#graph-div .marker.cross{stroke:#333333;}#graph-div svg{font-family:"trebuchet ms",verdana,arial,sans-serif;font-size:16px;}#graph-div .label{font-family:"trebuchet ms",verdana,arial,sans-serif;color:#333;}#graph-div .cluster-label text{fill:#333;}#graph-div .cluster-label span,#graph-div p{color:#333;}#graph-div .label text,#graph-div span,#graph-div p{fill:#333;color:#333;}#graph-div .node rect,#graph-div .node circle,#graph-div .node ellipse,#graph-div .node polygon,#graph-div .node path{fill:#ECECFF;stroke:#9370DB;stroke-width:1px;}#graph-div .flowchart-label text{text-anchor:middle;}#graph-div .node .katex path{fill:#000;stroke:#000;stroke-width:1px;}#graph-div .node .label{text-align:center;}#graph-div .node.clickable{cursor:pointer;}#graph-div .arrowheadPath{fill:#333333;}#graph-div .edgePath .path{stroke:#333333;stroke-width:2.0px;}#graph-div .flowchart-link{stroke:#333333;fill:none;}#graph-div .edgeLabel{background-color:#e8e8e8;text-align:center;}#graph-div .edgeLabel rect{opacity:0.5;background-color:#e8e8e8;fill:#e8e8e8;}#graph-div .labelBkg{background-color:rgba(232, 232, 232, 0.5);}#graph-div .cluster rect{fill:#ffffde;stroke:#aaaa33;stroke-width:1px;}#graph-div .cluster text{fill:#333;}#graph-div .cluster span,#graph-div p{color:#333;}#graph-div div.mermaidTooltip{position:absolute;text-align:center;max-width:200px;padding:2px;font-family:"trebuchet ms",verdana,arial,sans-serif;font-size:12px;background:hsl(80, 100%, 96.2745098039%);border:1px solid #aaaa33;border-radius:2px;pointer-events:none;z-index:100;}#graph-div .flowchartTitleText{text-anchor:middle;font-size:18px;fill:#333;}#graph-div :root{--mermaid-font-family:"trebuchet ms",verdana,arial,sans-serif;}</style><g><marker orient="auto" markerHeight="12" markerWidth="12" markerUnits="userSpaceOnUse" refY="5" refX="6" viewBox="0 0 10 10" class="marker flowchart" id="graph-div_flowchart-pointEnd"><path style="stroke-width: 1; stroke-dasharray: 1, 0;" class="arrowMarkerPath" d="M 0 0 L 10 5 L 0 10 z"></path></marker><marker orient="auto" markerHeight="12" markerWidth="12" markerUnits="userSpaceOnUse" refY="5" refX="4.5" viewBox="0 0 10 10" class="marker flowchart" id="graph-div_flowchart-pointStart"><path style="stroke-width: 1; stroke-dasharray: 1, 0;" class="arrowMarkerPath" d="M 0 5 L 10 10 L 10 0 z"></path></marker><marker orient="auto" markerHeight="11" markerWidth="11" markerUnits="userSpaceOnUse" refY="5" refX="11" viewBox="0 0 10 10" class="marker flowchart" id="graph-div_flowchart-circleEnd"><circle style="stroke-width: 1; stroke-dasharray: 1, 0;" class="arrowMarkerPath" r="5" cy="5" cx="5"></circle></marker><marker orient="auto" markerHeight="11" markerWidth="11" markerUnits="userSpaceOnUse" refY="5" refX="-1" viewBox="0 0 10 10" class="marker flowchart" id="graph-div_flowchart-circleStart"><circle style="stroke-width: 1; stroke-dasharray: 1, 0;" class="arrowMarkerPath" r="5" cy="5" cx="5"></circle></marker><marker orient="auto" markerHeight="11" markerWidth="11" markerUnits="userSpaceOnUse" refY="5.2" refX="12" viewBox="0 0 11 11" class="marker cross flowchart" id="graph-div_flowchart-crossEnd"><path style="stroke-width: 2; stroke-dasharray: 1, 0;" class="arrowMarkerPath" d="M 1,1 l 9,9 M 10,1 l -9,9"></path></marker><marker orient="auto" markerHeight="11" markerWidth="11" markerUnits="userSpaceOnUse" refY="5.2" refX="-1" viewBox="0 0 11 11" class="marker cross flowchart" id="graph-div_flowchart-crossStart"><path style="stroke-width: 2; stroke-dasharray: 1, 0;" class="arrowMarkerPath" d="M 1,1 l 9,9 M 10,1 l -9,9"></path></marker><g class="root"><g class="clusters"></g><g class="edgePaths"><path marker-end="url(#graph-div_flowchart-pointEnd)" style="fill:none;" class="edge-thickness-normal edge-pattern-solid flowchart-link LS-A LE-B" id="L-A-B-0" d="M114.094,160.059L118.26,160.059C122.427,160.059,130.76,160.059,138.21,160.059C145.66,160.059,152.227,160.059,155.51,160.059L158.794,160.059"></path><path marker-end="url(#graph-div_flowchart-pointEnd)" style="fill:none;" class="edge-thickness-normal edge-pattern-solid flowchart-link LS-B LE-C" id="L-B-C-0" d="M325.828,160.059L329.995,160.059C334.161,160.059,342.495,160.059,350.028,160.125C357.562,160.191,364.295,160.323,367.662,160.389L371.029,160.455"></path><path marker-end="url(#graph-div_flowchart-pointEnd)" style="fill:none;" class="edge-thickness-normal edge-pattern-solid flowchart-link LS-C LE-D" id="L-C-D-0" d="M491.057,201.173L503.423,214.733C515.788,228.294,540.519,255.414,574.404,268.975C608.289,282.535,651.328,282.535,694.367,282.535C737.406,282.535,780.445,282.535,817.745,282.535C855.044,282.535,886.604,282.535,916.651,282.535C946.698,282.535,975.232,282.535,1003.766,282.535C1032.299,282.535,1060.833,282.535,1092.474,282.535C1124.115,282.535,1158.862,282.535,1195.803,282.535C1232.745,282.535,1271.88,282.535,1307.909,282.535C1343.938,282.535,1376.859,282.535,1411.066,282.535C1445.273,282.535,1480.766,282.535,1519.867,282.535C1558.969,282.535,1601.68,282.535,1640.911,282.535C1680.143,282.535,1715.896,282.535,1748.039,282.535C1780.182,282.535,1808.716,282.535,1839.853,282.535C1870.99,282.535,1904.729,282.535,1938.469,282.535C1972.208,282.535,2005.948,282.535,2037.771,282.535C2069.594,282.535,2099.5,282.535,2129.406,282.535C2159.313,282.535,2189.219,282.535,2224.538,282.535C2259.857,282.535,2300.589,282.535,2350.971,282.535C2401.354,282.535,2461.388,282.535,2504.344,283.865C2547.3,285.195,2573.178,287.855,2586.117,289.185L2599.056,290.514"></path><path marker-end="url(#graph-div_flowchart-pointEnd)" style="fill:none;" class="edge-thickness-normal edge-pattern-solid flowchart-link LS-C LE-E" id="L-C-E-0" d="M503.103,131.989L513.46,125.831C523.818,119.673,544.534,107.356,559.772,101.268C575.01,95.18,584.769,95.321,589.649,95.392L594.529,95.462"></path><path marker-end="url(#graph-div_flowchart-pointEnd)" style="fill:none;" class="edge-thickness-normal edge-pattern-solid flowchart-link LS-E LE-F" id="L-E-F-0" d="M760.364,65.997L770.884,61.131C781.404,56.265,802.444,46.533,828.744,41.667C855.044,36.801,886.604,36.801,916.651,36.801C946.698,36.801,975.232,36.801,1003.766,36.801C1032.299,36.801,1060.833,36.801,1092.474,36.801C1124.115,36.801,1158.862,36.801,1195.803,36.801C1232.745,36.801,1271.88,36.801,1307.909,36.801C1343.938,36.801,1376.859,36.801,1411.066,36.801C1445.273,36.801,1480.766,36.801,1519.867,36.801C1558.969,36.801,1601.68,36.801,1629.928,36.801C1658.176,36.801,1671.961,36.801,1678.854,36.801L1685.747,36.801"></path><path marker-end="url(#graph-div_flowchart-pointEnd)" style="fill:none;" class="edge-thickness-normal edge-pattern-solid flowchart-link LS-F LE-G" id="L-F-G-0" d="M1812.25,36.801L1816.417,36.801C1820.583,36.801,1828.917,36.801,1843.539,42.817C1858.161,48.832,1879.072,60.864,1889.528,66.88L1899.984,72.896"></path><path marker-end="url(#graph-div_flowchart-pointEnd)" style="fill:none;" class="edge-thickness-normal edge-pattern-solid flowchart-link LS-E LE-H" id="L-E-H-0" d="M760.364,125.081L770.884,129.781C781.404,134.48,802.444,143.879,817.761,148.578C833.077,153.277,842.67,153.277,847.466,153.277L852.263,153.277"></path><path marker-end="url(#graph-div_flowchart-pointEnd)" style="fill:none;" class="edge-thickness-normal edge-pattern-solid flowchart-link LS-H LE-I" id="L-H-I-0" d="M978.766,153.277L982.932,153.277C987.099,153.277,995.432,153.277,1002.882,153.277C1010.332,153.277,1016.899,153.277,1020.182,153.277L1023.466,153.277"></path><path marker-end="url(#graph-div_flowchart-pointEnd)" style="fill:none;" class="edge-thickness-normal edge-pattern-solid flowchart-link LS-I LE-J" id="L-I-J-0" d="M1149.969,153.277L1157.242,153.277C1164.516,153.277,1179.063,153.277,1192.726,153.277C1206.39,153.277,1219.17,153.277,1225.56,153.277L1231.95,153.277"></path><path marker-end="url(#graph-div_flowchart-pointEnd)" style="fill:none;" class="edge-thickness-normal edge-pattern-solid flowchart-link LS-J LE-K" id="L-J-K-0" d="M1384.781,153.277L1388.948,153.277C1393.115,153.277,1401.448,153.277,1408.981,153.343C1416.515,153.409,1423.249,153.541,1426.615,153.607L1429.982,153.673"></path><path marker-end="url(#graph-div_flowchart-pointEnd)" style="fill:none;" class="edge-thickness-normal edge-pattern-solid flowchart-link LS-K LE-L" id="L-K-L-0" d="M1598.234,153.777L1605.927,153.694C1613.62,153.611,1629.005,153.444,1643.591,153.361C1658.176,153.277,1671.961,153.277,1678.854,153.277L1685.747,153.277"></path><path marker-end="url(#graph-div_flowchart-pointEnd)" style="fill:none;" class="edge-thickness-normal edge-pattern-solid flowchart-link LS-L LE-G" id="L-L-G-0" d="M1812.25,153.277L1816.417,153.277C1820.583,153.277,1828.917,153.277,1843.539,147.261C1858.161,141.246,1879.072,129.214,1889.528,123.198L1899.984,117.182"></path><path marker-end="url(#graph-div_flowchart-pointEnd)" style="fill:none;" class="edge-thickness-normal edge-pattern-solid flowchart-link LS-K LE-M" id="L-K-M-0" d="M1543.527,208.484L1560.338,242.926C1577.148,277.367,1610.77,346.25,1634.473,380.691C1658.176,415.133,1671.961,415.133,1678.854,415.133L1685.747,415.133"></path><path marker-end="url(#graph-div_flowchart-pointEnd)" style="fill:none;" class="edge-thickness-normal edge-pattern-solid flowchart-link LS-M LE-N" id="L-M-N-0" d="M1812.25,415.133L1816.417,415.133C1820.583,415.133,1828.917,415.133,1838.283,415.133C1847.65,415.133,1858.05,415.133,1863.25,415.133L1868.45,415.133"></path><path marker-end="url(#graph-div_flowchart-pointEnd)" style="fill:none;" class="edge-thickness-normal edge-pattern-solid flowchart-link LS-N LE-O" id="L-N-O-0" d="M2003.188,415.133L2009.271,415.133C2015.354,415.133,2027.521,415.133,2036.888,415.133C2046.254,415.133,2052.821,415.133,2056.104,415.133L2059.387,415.133"></path><path marker-end="url(#graph-div_flowchart-pointEnd)" style="fill:none;" class="edge-thickness-normal edge-pattern-solid flowchart-link LS-O LE-P" id="L-O-P-0" d="M2194.125,415.133L2198.292,415.133C2202.458,415.133,2210.792,415.133,2218.325,415.199C2225.859,415.265,2232.592,415.397,2235.959,415.463L2239.326,415.529"></path><path marker-end="url(#graph-div_flowchart-pointEnd)" style="fill:none;" class="edge-thickness-normal edge-pattern-solid flowchart-link LS-P LE-Q" id="L-P-Q-0" d="M2428.435,426.213L2443.933,428.033C2459.431,429.853,2490.426,433.493,2521.297,435.313C2552.168,437.133,2582.915,437.133,2598.288,437.133L2613.661,437.133"></path><path marker-end="url(#graph-div_flowchart-pointEnd)" style="fill:none;" class="edge-thickness-normal edge-pattern-solid flowchart-link LS-Q LE-R" id="L-Q-R-0" d="M2735.227,437.133L2741.832,437.133C2748.438,437.133,2761.648,437.133,2772.024,437.133C2782.4,437.133,2789.941,437.133,2793.711,437.133L2797.481,437.133"></path><path marker-end="url(#graph-div_flowchart-pointEnd)" style="fill:none;" class="edge-thickness-normal edge-pattern-solid flowchart-link LS-P LE-D" id="L-P-D-0" d="M2417.731,394.348L2435.012,389.395C2452.294,384.443,2486.858,374.538,2521.618,362.164C2556.378,349.791,2591.333,334.949,2608.811,327.528L2626.289,320.107"></path><path marker-end="url(#graph-div_flowchart-pointEnd)" style="fill:none;" class="edge-thickness-normal edge-pattern-solid flowchart-link LS-D LE-S" id="L-D-S-0" d="M2749.859,298.535L2754.026,298.535C2758.193,298.535,2766.526,298.535,2773.976,298.535C2781.426,298.535,2787.993,298.535,2791.276,298.535L2794.559,298.535"></path></g><g class="edgeLabels"><g class="edgeLabel"><g transform="translate(0, 0)" class="label"><foreignObject height="0" width="0"><div style="display: inline-block; white-space: nowrap;" xmlns="http://www.w3.org/1999/xhtml"><span class="edgeLabel"></span></div></foreignObject></g></g><g class="edgeLabel"><g transform="translate(0, 0)" class="label"><foreignObject height="0" width="0"><div style="display: inline-block; white-space: nowrap;" xmlns="http://www.w3.org/1999/xhtml"><span class="edgeLabel"></span></div></foreignObject></g></g><g transform="translate(1516.2578125, 282.53515625)" class="edgeLabel"><g transform="translate(-21.65625, -12)" class="label"><foreignObject height="24" width="43.3125"><div style="display: inline-block; white-space: nowrap;" xmlns="http://www.w3.org/1999/xhtml"><span class="edgeLabel">Không</span></div></foreignObject></g></g><g transform="translate(565.25, 95.0390625)" class="edgeLabel"><g transform="translate(-9.078125, -12)" class="label"><foreignObject height="24" width="18.15625"><div style="display: inline-block; white-space: nowrap;" xmlns="http://www.w3.org/1999/xhtml"><span class="edgeLabel">Có</span></div></foreignObject></g></g><g transform="translate(1193.609375, 36.80078125)" class="edgeLabel"><g transform="translate(-18.640625, -12)" class="label"><foreignObject height="24" width="37.28125"><div style="display: inline-block; white-space: nowrap;" xmlns="http://www.w3.org/1999/xhtml"><span class="edgeLabel">Chưa</span></div></foreignObject></g></g><g class="edgeLabel"><g transform="translate(0, 0)" class="label"><foreignObject height="0" width="0"><div style="display: inline-block; white-space: nowrap;" xmlns="http://www.w3.org/1999/xhtml"><span class="edgeLabel"></span></div></foreignObject></g></g><g transform="translate(823.484375, 153.27734375)" class="edgeLabel"><g transform="translate(-9.078125, -12)" class="label"><foreignObject height="24" width="18.15625"><div style="display: inline-block; white-space: nowrap;" xmlns="http://www.w3.org/1999/xhtml"><span class="edgeLabel">Có</span></div></foreignObject></g></g><g class="edgeLabel"><g transform="translate(0, 0)" class="label"><foreignObject height="0" width="0"><div style="display: inline-block; white-space: nowrap;" xmlns="http://www.w3.org/1999/xhtml"><span class="edgeLabel"></span></div></foreignObject></g></g><g class="edgeLabel"><g transform="translate(0, 0)" class="label"><foreignObject height="0" width="0"><div style="display: inline-block; white-space: nowrap;" xmlns="http://www.w3.org/1999/xhtml"><span class="edgeLabel"></span></div></foreignObject></g></g><g class="edgeLabel"><g transform="translate(0, 0)" class="label"><foreignObject height="0" width="0"><div style="display: inline-block; white-space: nowrap;" xmlns="http://www.w3.org/1999/xhtml"><span class="edgeLabel"></span></div></foreignObject></g></g><g transform="translate(1644.390625, 153.27734375)" class="edgeLabel"><g transform="translate(-21.65625, -12)" class="label"><foreignObject height="24" width="43.3125"><div style="display: inline-block; white-space: nowrap;" xmlns="http://www.w3.org/1999/xhtml"><span class="edgeLabel">Không</span></div></foreignObject></g></g><g class="edgeLabel"><g transform="translate(0, 0)" class="label"><foreignObject height="0" width="0"><div style="display: inline-block; white-space: nowrap;" xmlns="http://www.w3.org/1999/xhtml"><span class="edgeLabel"></span></div></foreignObject></g></g><g transform="translate(1644.390625, 415.1328125)" class="edgeLabel"><g transform="translate(-9.078125, -12)" class="label"><foreignObject height="24" width="18.15625"><div style="display: inline-block; white-space: nowrap;" xmlns="http://www.w3.org/1999/xhtml"><span class="edgeLabel">Có</span></div></foreignObject></g></g><g class="edgeLabel"><g transform="translate(0, 0)" class="label"><foreignObject height="0" width="0"><div style="display: inline-block; white-space: nowrap;" xmlns="http://www.w3.org/1999/xhtml"><span class="edgeLabel"></span></div></foreignObject></g></g><g class="edgeLabel"><g transform="translate(0, 0)" class="label"><foreignObject height="0" width="0"><div style="display: inline-block; white-space: nowrap;" xmlns="http://www.w3.org/1999/xhtml"><span class="edgeLabel"></span></div></foreignObject></g></g><g class="edgeLabel"><g transform="translate(0, 0)" class="label"><foreignObject height="0" width="0"><div style="display: inline-block; white-space: nowrap;" xmlns="http://www.w3.org/1999/xhtml"><span class="edgeLabel"></span></div></foreignObject></g></g><g transform="translate(2521.421875, 437.1328125)" class="edgeLabel"><g transform="translate(-57.90625, -12)" class="label"><foreignObject height="24" width="115.8125"><div style="display: inline-block; white-space: nowrap;" xmlns="http://www.w3.org/1999/xhtml"><span class="edgeLabel">Không đủ quyền</span></div></foreignObject></g></g><g class="edgeLabel"><g transform="translate(0, 0)" class="label"><foreignObject height="0" width="0"><div style="display: inline-block; white-space: nowrap;" xmlns="http://www.w3.org/1999/xhtml"><span class="edgeLabel"></span></div></foreignObject></g></g><g transform="translate(2521.421875, 364.6328125)" class="edgeLabel"><g transform="translate(-33.3984375, -12)" class="label"><foreignObject height="24" width="66.796875"><div style="display: inline-block; white-space: nowrap;" xmlns="http://www.w3.org/1999/xhtml"><span class="edgeLabel">Có quyền</span></div></foreignObject></g></g><g class="edgeLabel"><g transform="translate(0, 0)" class="label"><foreignObject height="0" width="0"><div style="display: inline-block; white-space: nowrap;" xmlns="http://www.w3.org/1999/xhtml"><span class="edgeLabel"></span></div></foreignObject></g></g></g><g class="nodes"><g transform="translate(57.046875, 160.05859375)" data-id="A" data-node="true" id="flowchart-A-20271" class="node default default flowchart-label"><rect height="39" width="114.09375" y="-19.5" x="-57.046875" ry="0" rx="0" style="fill:#e1f5ff;" class="basic label-container"></rect><g transform="translate(-49.546875, -12)" style="" class="label"><rect></rect><foreignObject height="24" width="99.09375"><div style="display: inline-block; white-space: nowrap;" xmlns="http://www.w3.org/1999/xhtml"><span class="nodeLabel">HTTP Request</span></div></foreignObject></g></g><g transform="translate(244.9609375, 160.05859375)" data-id="B" data-node="true" id="flowchart-B-20272" class="node default default flowchart-label"><rect height="39" width="161.734375" y="-19.5" x="-80.8671875" ry="0" rx="0" style="" class="basic label-container"></rect><g transform="translate(-73.3671875, -12)" style="" class="label"><rect></rect><foreignObject height="24" width="146.734375"><div style="display: inline-block; white-space: nowrap;" xmlns="http://www.w3.org/1999/xhtml"><span class="nodeLabel">Security Filter Chain</span></div></foreignObject></g></g><g transform="translate(453.5, 160.05859375)" data-id="C" data-node="true" id="flowchart-C-20274" class="node default default flowchart-label"><polygon style="" transform="translate(-77.671875,77.671875)" class="label-container" points="77.671875,0 155.34375,-77.671875 77.671875,-155.34375 0,-77.671875"></polygon><g transform="translate(-50.671875, -12)" style="" class="label"><rect></rect><foreignObject height="24" width="101.34375"><div style="display: inline-block; white-space: nowrap;" xmlns="http://www.w3.org/1999/xhtml"><span class="nodeLabel">Cần xác thực?</span></div></foreignObject></g></g><g transform="translate(2677.09375, 298.53515625)" data-id="D" data-node="true" id="flowchart-D-20276" class="node default default flowchart-label"><rect height="39" width="145.53125" y="-19.5" x="-72.765625" ry="0" rx="0" style="fill:#e1ffe1;" class="basic label-container"></rect><g transform="translate(-65.265625, -12)" style="" class="label"><rect></rect><foreignObject height="24" width="130.53125"><div style="display: inline-block; white-space: nowrap;" xmlns="http://www.w3.org/1999/xhtml"><span class="nodeLabel">Truy cập Resource</span></div></foreignObject></g></g><g transform="translate(694.3671875, 95.0390625)" data-id="E" data-node="true" id="flowchart-E-20278" class="node default default flowchart-label"><polygon style="" transform="translate(-95.0390625,95.0390625)" class="label-container" points="95.0390625,0 190.078125,-95.0390625 95.0390625,-190.078125 0,-95.0390625"></polygon><g transform="translate(-56.0390625, -24)" style="" class="label"><rect></rect><foreignObject height="48" width="112.078125"><div style="display: inline-block; white-space: nowrap;" xmlns="http://www.w3.org/1999/xhtml"><span class="nodeLabel">Đã có<br/>Authentication?</span></div></foreignObject></g></g><g transform="translate(1751.6484375, 36.80078125)" data-id="F" data-node="true" id="flowchart-F-20280" class="node default default flowchart-label"><rect height="63" width="121.203125" y="-31.5" x="-60.6015625" ry="0" rx="0" style="" class="basic label-container"></rect><g transform="translate(-53.1015625, -24)" style="" class="label"><rect></rect><foreignObject height="48" width="106.203125"><div style="display: inline-block; white-space: nowrap;" xmlns="http://www.w3.org/1999/xhtml"><span class="nodeLabel">Authentication<br/>Entry Point</span></div></foreignObject></g></g><g transform="translate(1938.46875, 95.0390625)" data-id="G" data-node="true" id="flowchart-G-20282" class="node default default flowchart-label"><rect height="39" width="152.4375" y="-19.5" x="-76.21875" ry="0" rx="0" style="fill:#ffe1e1;" class="basic label-container"></rect><g transform="translate(-68.71875, -12)" style="" class="label"><rect></rect><foreignObject height="24" width="137.4375"><div style="display: inline-block; white-space: nowrap;" xmlns="http://www.w3.org/1999/xhtml"><span class="nodeLabel">Yêu cầu đăng nhập</span></div></foreignObject></g></g><g transform="translate(918.1640625, 153.27734375)" data-id="H" data-node="true" id="flowchart-H-20284" class="node default default flowchart-label"><rect height="63" width="121.203125" y="-31.5" x="-60.6015625" ry="0" rx="0" style="fill:#f0e6ff;" class="basic label-container"></rect><g transform="translate(-53.1015625, -24)" style="" class="label"><rect></rect><foreignObject height="48" width="106.203125"><div style="display: inline-block; white-space: nowrap;" xmlns="http://www.w3.org/1999/xhtml"><span class="nodeLabel">Authentication<br/>Manager</span></div></foreignObject></g></g><g transform="translate(1089.3671875, 153.27734375)" data-id="I" data-node="true" id="flowchart-I-20286" class="node default default flowchart-label"><rect height="63" width="121.203125" y="-31.5" x="-60.6015625" ry="0" rx="0" style="fill:#f0e6ff;" class="basic label-container"></rect><g transform="translate(-53.1015625, -24)" style="" class="label"><rect></rect><foreignObject height="48" width="106.203125"><div style="display: inline-block; white-space: nowrap;" xmlns="http://www.w3.org/1999/xhtml"><span class="nodeLabel">Authentication<br/>Provider</span></div></foreignObject></g></g><g transform="translate(1311.015625, 153.27734375)" data-id="J" data-node="true" id="flowchart-J-20288" class="node default default flowchart-label"><rect height="39" width="147.53125" y="-19.5" x="-73.765625" ry="0" rx="0" style="fill:#f0e6ff;" class="basic label-container"></rect><g transform="translate(-66.265625, -12)" style="" class="label"><rect></rect><foreignObject height="24" width="132.53125"><div style="display: inline-block; white-space: nowrap;" xmlns="http://www.w3.org/1999/xhtml"><span class="nodeLabel">UserDetailsService</span></div></foreignObject></g></g><g transform="translate(1516.2578125, 153.27734375)" data-id="K" data-node="true" id="flowchart-K-20290" class="node default default flowchart-label"><polygon style="" transform="translate(-81.4765625,81.4765625)" class="label-container" points="81.4765625,0 162.953125,-81.4765625 81.4765625,-162.953125 0,-81.4765625"></polygon><g transform="translate(-42.4765625, -24)" style="" class="label"><rect></rect><foreignObject height="48" width="84.953125"><div style="display: inline-block; white-space: nowrap;" xmlns="http://www.w3.org/1999/xhtml"><span class="nodeLabel">Xác thực<br/>thành công?</span></div></foreignObject></g></g><g transform="translate(1751.6484375, 153.27734375)" data-id="L" data-node="true" id="flowchart-L-20292" class="node default default flowchart-label"><rect height="63" width="121.203125" y="-31.5" x="-60.6015625" ry="0" rx="0" style="" class="basic label-container"></rect><g transform="translate(-53.1015625, -24)" style="" class="label"><rect></rect><foreignObject height="48" width="106.203125"><div style="display: inline-block; white-space: nowrap;" xmlns="http://www.w3.org/1999/xhtml"><span class="nodeLabel">Authentication<br/>Exception</span></div></foreignObject></g></g><g transform="translate(1751.6484375, 415.1328125)" data-id="M" data-node="true" id="flowchart-M-20296" class="node default default flowchart-label"><rect height="63" width="121.203125" y="-31.5" x="-60.6015625" ry="0" rx="0" style="" class="basic label-container"></rect><g transform="translate(-53.1015625, -24)" style="" class="label"><rect></rect><foreignObject height="48" width="106.203125"><div style="display: inline-block; white-space: nowrap;" xmlns="http://www.w3.org/1999/xhtml"><span class="nodeLabel">Authentication<br/>Object</span></div></foreignObject></g></g><g transform="translate(1938.46875, 415.1328125)" data-id="N" data-node="true" id="flowchart-N-20298" class="node default default flowchart-label"><rect height="63" width="129.4375" y="-31.5" x="-64.71875" ry="0" rx="0" style="" class="basic label-container"></rect><g transform="translate(-57.21875, -24)" style="" class="label"><rect></rect><foreignObject height="48" width="114.4375"><div style="display: inline-block; white-space: nowrap;" xmlns="http://www.w3.org/1999/xhtml"><span class="nodeLabel">SecurityContext<br/>Holder</span></div></foreignObject></g></g><g transform="translate(2129.40625, 415.1328125)" data-id="O" data-node="true" id="flowchart-O-20300" class="node default default flowchart-label"><rect height="63" width="129.4375" y="-31.5" x="-64.71875" ry="0" rx="0" style="fill:#fff4e1;" class="basic label-container"></rect><g transform="translate(-57.21875, -24)" style="" class="label"><rect></rect><foreignObject height="48" width="114.4375"><div style="display: inline-block; white-space: nowrap;" xmlns="http://www.w3.org/1999/xhtml"><span class="nodeLabel">Lưu vào<br/>SecurityContext</span></div></foreignObject></g></g><g transform="translate(2341.3203125, 415.1328125)" data-id="P" data-node="true" id="flowchart-P-20302" class="node default default flowchart-label"><polygon style="" transform="translate(-97.1953125,97.1953125)" class="label-container" points="97.1953125,0 194.390625,-97.1953125 97.1953125,-194.390625 0,-97.1953125"></polygon><g transform="translate(-58.1953125, -24)" style="" class="label"><rect></rect><foreignObject height="48" width="116.390625"><div style="display: inline-block; white-space: nowrap;" xmlns="http://www.w3.org/1999/xhtml"><span class="nodeLabel">Authorization<br/>Kiểm tra quyền?</span></div></foreignObject></g></g><g transform="translate(2677.09375, 437.1328125)" data-id="Q" data-node="true" id="flowchart-Q-20304" class="node default default flowchart-label"><rect height="63" width="116.265625" y="-31.5" x="-58.1328125" ry="0" rx="0" style="" class="basic label-container"></rect><g transform="translate(-50.6328125, -24)" style="" class="label"><rect></rect><foreignObject height="48" width="101.265625"><div style="display: inline-block; white-space: nowrap;" xmlns="http://www.w3.org/1999/xhtml"><span class="nodeLabel">Access Denied<br/>Handler</span></div></foreignObject></g></g><g transform="translate(2861.265625, 437.1328125)" data-id="R" data-node="true" id="flowchart-R-20306" class="node default default flowchart-label"><rect height="39" width="116.96875" y="-19.5" x="-58.484375" ry="0" rx="0" style="fill:#ffe1e1;" class="basic label-container"></rect><g transform="translate(-50.984375, -12)" style="" class="label"><rect></rect><foreignObject height="24" width="101.96875"><div style="display: inline-block; white-space: nowrap;" xmlns="http://www.w3.org/1999/xhtml"><span class="nodeLabel">403 Forbidden</span></div></foreignObject></g></g><g transform="translate(2861.265625, 298.53515625)" data-id="S" data-node="true" id="flowchart-S-20310" class="node default default flowchart-label"><rect height="39" width="122.8125" y="-19.5" x="-61.40625" ry="0" rx="0" style="fill:#e1f5ff;" class="basic label-container"></rect><g transform="translate(-53.90625, -12)" style="" class="label"><rect></rect><foreignObject height="24" width="107.8125"><div style="display: inline-block; white-space: nowrap;" xmlns="http://www.w3.org/1999/xhtml"><span class="nodeLabel">HTTP Response</span></div></foreignObject></g></g></g></g></g></svg>