<svg aria-roledescription="flowchart-v2" role="graphics-document document" viewBox="-7.5 -8 4620.859375 537.98046875" style="max-width: 100%;" xmlns="http://www.w3.org/2000/svg" width="100%" id="graph-div" height="100%" xmlns:xlink="http://www.w3.org/1999/xlink"><style>@import url("https://cdnjs.cloudflare.com/ajax/libs/font-awesome/6.5.1/css/all.min.css");'</style><style>#graph-div{font-family:"trebuchet ms",verdana,arial,sans-serif;font-size:16px;fill:#333;}#graph-div .error-icon{fill:#552222;}#graph-div .error-text{fill:#552222;stroke:#552222;}#graph-div .edge-thickness-normal{stroke-width:2px;}#graph-div .edge-thickness-thick{stroke-width:3.5px;}#graph-div .edge-pattern-solid{stroke-dasharray:0;}#graph-div .edge-pattern-dashed{stroke-dasharray:3;}#graph-div .edge-pattern-dotted{stroke-dasharray:2;}#graph-div .marker{fill:#333333;stroke:#333333;}#graph-div .marker.cross{stroke:#333333;}#graph-div svg{font-family:"trebuchet ms",verdana,arial,sans-serif;font-size:16px;}#graph-div .label{font-family:"trebuchet ms",verdana,arial,sans-serif;color:#333;}#graph-div .cluster-label text{fill:#333;}#graph-div .cluster-label span,#graph-div p{color:#333;}#graph-div .label text,#graph-div span,#graph-div p{fill:#333;color:#333;}#graph-div .node rect,#graph-div .node circle,#graph-div .node ellipse,#graph-div .node polygon,#graph-div .node path{fill:#ECECFF;stroke:#9370DB;stroke-width:1px;}#graph-div .flowchart-label text{text-anchor:middle;}#graph-div .node .katex path{fill:#000;stroke:#000;stroke-width:1px;}#graph-div .node .label{text-align:center;}#graph-div .node.clickable{cursor:pointer;}#graph-div .arrowheadPath{fill:#333333;}#graph-div .edgePath .path{stroke:#333333;stroke-width:2.0px;}#graph-div .flowchart-link{stroke:#333333;fill:none;}#graph-div .edgeLabel{background-color:#e8e8e8;text-align:center;}#graph-div .edgeLabel rect{opacity:0.5;background-color:#e8e8e8;fill:#e8e8e8;}#graph-div .labelBkg{background-color:rgba(232, 232, 232, 0.5);}#graph-div .cluster rect{fill:#ffffde;stroke:#aaaa33;stroke-width:1px;}#graph-div .cluster text{fill:#333;}#graph-div .cluster span,#graph-div p{color:#333;}#graph-div div.mermaidTooltip{position:absolute;text-align:center;max-width:200px;padding:2px;font-family:"trebuchet ms",verdana,arial,sans-serif;font-size:12px;background:hsl(80, 100%, 96.2745098039%);border:1px solid #aaaa33;border-radius:2px;pointer-events:none;z-index:100;}#graph-div .flowchartTitleText{text-anchor:middle;font-size:18px;fill:#333;}#graph-div :root{--mermaid-font-family:"trebuchet ms",verdana,arial,sans-serif;}</style><g><marker orient="auto" markerHeight="12" markerWidth="12" markerUnits="userSpaceOnUse" refY="5" refX="6" viewBox="0 0 10 10" class="marker flowchart" id="graph-div_flowchart-pointEnd"><path style="stroke-width: 1; stroke-dasharray: 1, 0;" class="arrowMarkerPath" d="M 0 0 L 10 5 L 0 10 z"></path></marker><marker orient="auto" markerHeight="12" markerWidth="12" markerUnits="userSpaceOnUse" refY="5" refX="4.5" viewBox="0 0 10 10" class="marker flowchart" id="graph-div_flowchart-pointStart"><path style="stroke-width: 1; stroke-dasharray: 1, 0;" class="arrowMarkerPath" d="M 0 5 L 10 10 L 10 0 z"></path></marker><marker orient="auto" markerHeight="11" markerWidth="11" markerUnits="userSpaceOnUse" refY="5" refX="11" viewBox="0 0 10 10" class="marker flowchart" id="graph-div_flowchart-circleEnd"><circle style="stroke-width: 1; stroke-dasharray: 1, 0;" class="arrowMarkerPath" r="5" cy="5" cx="5"></circle></marker><marker orient="auto" markerHeight="11" markerWidth="11" markerUnits="userSpaceOnUse" refY="5" refX="-1" viewBox="0 0 10 10" class="marker flowchart" id="graph-div_flowchart-circleStart"><circle style="stroke-width: 1; stroke-dasharray: 1, 0;" class="arrowMarkerPath" r="5" cy="5" cx="5"></circle></marker><marker orient="auto" markerHeight="11" markerWidth="11" markerUnits="userSpaceOnUse" refY="5.2" refX="12" viewBox="0 0 11 11" class="marker cross flowchart" id="graph-div_flowchart-crossEnd"><path style="stroke-width: 2; stroke-dasharray: 1, 0;" class="arrowMarkerPath" d="M 1,1 l 9,9 M 10,1 l -9,9"></path></marker><marker orient="auto" markerHeight="11" markerWidth="11" markerUnits="userSpaceOnUse" refY="5.2" refX="-1" viewBox="0 0 11 11" class="marker cross flowchart" id="graph-div_flowchart-crossStart"><path style="stroke-width: 2; stroke-dasharray: 1, 0;" class="arrowMarkerPath" d="M 1,1 l 9,9 M 10,1 l -9,9"></path></marker><g class="root"><g class="clusters"></g><g class="edgePaths"></g><g class="edgeLabels"></g><g class="nodes"><g transform="translate(-7.5, -8)" class="root"><g class="clusters"><g id="Database" class="cluster default flowchart-label"><rect height="521.98046875" width="4604.859375" y="8" x="8" ry="0" rx="0" style=""></rect><g transform="translate(2108.5703125, 8)" class="cluster-label"><foreignObject height="24" width="403.71875"><div style="display: inline-block; white-space: nowrap;" xmlns="http://www.w3.org/1999/xhtml"><span class="nodeLabel">DATABASE AUTHENTICATION - Custom UserDetailsService</span></div></foreignObject></g></g></g><g class="edgePaths"><path marker-end="url(#graph-div_flowchart-pointEnd)" style="fill:none;" class="edge-thickness-normal edge-pattern-solid flowchart-link LS-A2 LE-B2" id="L-A2-B2-0" d="M147.094,260.195L151.26,260.195C155.427,260.195,163.76,260.195,171.21,260.195C178.66,260.195,185.227,260.195,188.51,260.195L191.794,260.195"></path><path marker-end="url(#graph-div_flowchart-pointEnd)" style="fill:none;" class="edge-thickness-normal edge-pattern-solid flowchart-link LS-B2 LE-C2" id="L-B2-C2-0" d="M349.188,260.195L353.354,260.195C357.521,260.195,365.854,260.195,373.388,260.261C380.921,260.327,387.655,260.459,391.022,260.525L394.389,260.591"></path><path marker-end="url(#graph-div_flowchart-pointEnd)" style="fill:none;" class="edge-thickness-normal edge-pattern-solid flowchart-link LS-C2 LE-D2" id="L-C2-D2-0" d="M515.279,310.791L529.225,332.169C543.17,353.547,571.062,396.303,604.511,417.681C637.961,439.059,676.969,439.059,715.977,439.059C754.984,439.059,793.992,439.059,843.866,439.059C893.74,439.059,954.479,439.059,1013.706,439.059C1072.932,439.059,1130.646,439.059,1174.846,439.059C1219.047,439.059,1249.734,439.059,1280.422,439.059C1311.109,439.059,1341.797,439.059,1378.578,439.059C1415.359,439.059,1458.234,439.059,1501.109,439.059C1543.984,439.059,1586.859,439.059,1632.141,439.059C1677.422,439.059,1725.109,439.059,1772.797,439.059C1820.484,439.059,1868.172,439.059,1906.329,439.059C1944.487,439.059,1973.115,439.059,2001.742,439.059C2030.37,439.059,2058.997,439.059,2085.467,439.059C2111.938,439.059,2136.25,439.059,2160.563,439.059C2184.875,439.059,2209.188,439.059,2237.634,439.059C2266.081,439.059,2298.661,439.059,2334.852,439.059C2371.042,439.059,2410.841,439.059,2450.253,439.059C2489.664,439.059,2528.688,439.059,2564.102,439.059C2599.516,439.059,2631.32,439.059,2666.875,439.059C2702.43,439.059,2741.734,439.059,2781.039,439.059C2820.344,439.059,2859.648,439.059,2895.576,439.059C2931.503,439.059,2964.052,439.059,3000.211,439.059C3036.37,439.059,3076.138,439.059,3122.536,439.059C3168.935,439.059,3221.964,439.059,3271.383,439.059C3320.802,439.059,3366.612,439.059,3408.439,439.059C3450.266,439.059,3488.109,439.059,3525.953,439.059C3563.797,439.059,3601.641,439.059,3635.516,439.059C3669.391,439.059,3699.297,439.059,3729.203,439.059C3759.109,439.059,3789.016,439.059,3818.565,439.059C3848.115,439.059,3877.307,439.059,3906.5,439.059C3935.693,439.059,3964.885,439.059,3994.204,439.059C4023.523,439.059,4052.969,439.059,4086.023,439.059C4119.078,439.059,4155.742,439.059,4183.998,440.213C4212.253,441.367,4232.1,443.675,4242.023,444.829L4251.946,445.983"></path><path marker-end="url(#graph-div_flowchart-pointEnd)" style="fill:none;" class="edge-thickness-normal edge-pattern-solid flowchart-link LS-C2 LE-E2" id="L-C2-E2-0" d="M537.6,232.92L547.825,227.637C558.051,222.354,578.502,211.788,593.607,206.576C608.713,201.364,618.472,201.505,623.352,201.575L628.232,201.646"></path><path marker-end="url(#graph-div_flowchart-pointEnd)" style="fill:none;" class="edge-thickness-normal edge-pattern-solid flowchart-link LS-E2 LE-F2" id="L-E2-F2-0" d="M760.997,163.298L772.998,152.785C784.998,142.273,808.999,121.248,851.369,110.735C893.74,100.223,954.479,100.223,1013.706,100.223C1072.932,100.223,1130.646,100.223,1174.846,100.223C1219.047,100.223,1249.734,100.223,1280.422,100.223C1311.109,100.223,1341.797,100.223,1378.578,100.223C1415.359,100.223,1458.234,100.223,1501.109,100.223C1543.984,100.223,1586.859,100.223,1632.141,100.223C1677.422,100.223,1725.109,100.223,1772.797,100.223C1820.484,100.223,1868.172,100.223,1906.329,100.223C1944.487,100.223,1973.115,100.223,2001.742,100.223C2030.37,100.223,2058.997,100.223,2085.467,100.223C2111.938,100.223,2136.25,100.223,2160.563,100.223C2184.875,100.223,2209.188,100.223,2237.634,100.223C2266.081,100.223,2298.661,100.223,2334.852,100.223C2371.042,100.223,2410.841,100.223,2450.253,100.223C2489.664,100.223,2528.688,100.223,2564.102,100.223C2599.516,100.223,2631.32,100.223,2666.875,100.223C2702.43,100.223,2741.734,100.223,2781.039,100.223C2820.344,100.223,2859.648,100.223,2895.576,100.223C2931.503,100.223,2964.052,100.223,3000.211,100.223C3036.37,100.223,3076.138,100.223,3122.536,100.223C3168.935,100.223,3221.964,100.223,3271.383,100.223C3320.802,100.223,3366.612,100.223,3397.291,100.223C3427.97,100.223,3443.519,100.223,3451.293,100.223L3459.067,100.223"></path><path marker-end="url(#graph-div_flowchart-pointEnd)" style="fill:none;" class="edge-thickness-normal edge-pattern-solid flowchart-link LS-F2 LE-G2" id="L-F2-G2-0" d="M3587.539,100.223L3596.197,100.223C3604.854,100.223,3622.169,100.223,3635.683,102.956C3649.197,105.689,3658.909,111.156,3663.765,113.89L3668.621,116.623"></path><path marker-end="url(#graph-div_flowchart-pointEnd)" style="fill:none;" class="edge-thickness-normal edge-pattern-solid flowchart-link LS-E2 LE-H2" id="L-E2-H2-0" d="M773.275,227.87L783.229,232.407C793.183,236.944,813.092,246.019,827.842,250.556C842.593,255.094,852.185,255.094,856.982,255.094L861.778,255.094"></path><path marker-end="url(#graph-div_flowchart-pointEnd)" style="fill:none;" class="edge-thickness-normal edge-pattern-solid flowchart-link LS-H2 LE-I2" id="L-H2-I2-0" d="M1163.359,255.094L1167.526,255.094C1171.693,255.094,1180.026,255.094,1187.476,255.094C1194.926,255.094,1201.493,255.094,1204.776,255.094L1208.059,255.094"></path><path marker-end="url(#graph-div_flowchart-pointEnd)" style="fill:none;" class="edge-thickness-normal edge-pattern-solid flowchart-link LS-I2 LE-J2" id="L-I2-J2-0" d="M1347.484,255.094L1351.651,255.094C1355.818,255.094,1364.151,255.094,1371.601,255.094C1379.051,255.094,1385.618,255.094,1388.901,255.094L1392.184,255.094"></path><path marker-end="url(#graph-div_flowchart-pointEnd)" style="fill:none;" class="edge-thickness-normal edge-pattern-solid flowchart-link LS-J2 LE-K2" id="L-J2-K2-0" d="M1604.734,255.094L1608.901,255.094C1613.068,255.094,1621.401,255.094,1628.851,255.094C1636.301,255.094,1642.868,255.094,1646.151,255.094L1649.434,255.094"></path><path marker-end="url(#graph-div_flowchart-pointEnd)" style="fill:none;" class="edge-thickness-normal edge-pattern-solid flowchart-link LS-K2 LE-K2A" id="L-K2-K2A-0" d="M1890.859,255.094L1895.026,255.094C1899.193,255.094,1907.526,255.094,1914.976,255.094C1922.426,255.094,1928.993,255.094,1932.276,255.094L1935.559,255.094"></path><path marker-end="url(#graph-div_flowchart-pointEnd)" style="fill:none;" class="edge-thickness-normal edge-pattern-solid flowchart-link LS-K2A LE-K2B" id="L-K2A-K2B-0" d="M2062.625,255.094L2066.792,255.094C2070.958,255.094,2079.292,255.094,2086.742,255.094C2094.192,255.094,2100.758,255.094,2104.042,255.094L2107.325,255.094"></path><path marker-end="url(#graph-div_flowchart-pointEnd)" style="fill:none;" class="edge-thickness-normal edge-pattern-solid flowchart-link LS-K2B LE-L2" id="L-K2B-L2-0" d="M2208.5,255.094L2212.667,255.094C2216.833,255.094,2225.167,255.094,2232.7,255.16C2240.234,255.226,2246.967,255.358,2250.334,255.424L2253.701,255.49"></path><path marker-end="url(#graph-div_flowchart-pointEnd)" style="fill:none;" class="edge-thickness-normal edge-pattern-solid flowchart-link LS-L2 LE-M2" id="L-L2-M2-0" d="M2374.234,225.344L2386.969,216.135C2399.703,206.927,2425.172,188.51,2457.418,179.302C2489.664,170.094,2528.688,170.094,2564.102,170.094C2599.516,170.094,2631.32,170.094,2666.875,170.094C2702.43,170.094,2741.734,170.094,2781.039,170.094C2820.344,170.094,2859.648,170.094,2895.576,170.094C2931.503,170.094,2964.052,170.094,3000.211,170.094C3036.37,170.094,3076.138,170.094,3106.687,172.407C3137.236,174.719,3158.565,179.345,3169.23,181.658L3179.894,183.97"></path><path marker-end="url(#graph-div_flowchart-pointEnd)" style="fill:none;" class="edge-thickness-normal edge-pattern-solid flowchart-link LS-M2 LE-N2" id="L-M2-N2-0" d="M3387.422,204.594L3391.589,204.594C3395.755,204.594,3404.089,204.594,3416.213,204.594C3428.338,204.594,3444.253,204.594,3452.211,204.594L3460.169,204.594"></path><path marker-end="url(#graph-div_flowchart-pointEnd)" style="fill:none;" class="edge-thickness-normal edge-pattern-solid flowchart-link LS-N2 LE-G2" id="L-N2-G2-0" d="M3586.438,204.594L3595.279,204.594C3604.12,204.594,3621.802,204.594,3636.096,201.32C3650.389,198.046,3661.294,191.499,3666.746,188.225L3672.198,184.951"></path><path marker-end="url(#graph-div_flowchart-pointEnd)" style="fill:none;" class="edge-thickness-normal edge-pattern-solid flowchart-link LS-L2 LE-O2" id="L-L2-O2-0" d="M2381.882,278.196L2393.342,283.317C2404.801,288.437,2427.721,298.677,2446.074,303.798C2464.426,308.918,2478.211,308.918,2485.104,308.918L2491.997,308.918"></path><path marker-end="url(#graph-div_flowchart-pointEnd)" style="fill:none;" class="edge-thickness-normal edge-pattern-solid flowchart-link LS-O2 LE-O2A" id="L-O2-O2A-0" d="M2638.125,308.918L2642.292,308.918C2646.458,308.918,2654.792,308.918,2662.242,308.918C2669.692,308.918,2676.258,308.918,2679.542,308.918L2682.825,308.918"></path><path marker-end="url(#graph-div_flowchart-pointEnd)" style="fill:none;" class="edge-thickness-normal edge-pattern-solid flowchart-link LS-O2A LE-P2" id="L-O2A-P2-0" d="M2873.953,308.918L2878.12,308.918C2882.286,308.918,2890.62,308.918,2898.153,308.984C2905.687,309.05,2912.42,309.182,2915.787,309.248L2919.154,309.314"></path><path marker-end="url(#graph-div_flowchart-pointEnd)" style="fill:none;" class="edge-thickness-normal edge-pattern-solid flowchart-link LS-P2 LE-M2" id="L-P2-M2-0" d="M3048.144,287.812L3059.438,282.913C3070.732,278.014,3093.319,268.216,3120.684,257.879C3148.05,247.543,3180.193,236.668,3196.265,231.23L3212.336,225.792"></path><path marker-end="url(#graph-div_flowchart-pointEnd)" style="fill:none;" class="edge-thickness-normal edge-pattern-solid flowchart-link LS-P2 LE-Q2" id="L-P2-Q2-0" d="M3058.439,320.729L3068.017,322.427C3077.595,324.125,3096.751,327.522,3118.03,329.22C3139.309,330.918,3162.711,330.918,3174.413,330.918L3186.114,330.918"></path><path marker-end="url(#graph-div_flowchart-pointEnd)" style="fill:none;" class="edge-thickness-normal edge-pattern-solid flowchart-link LS-Q2 LE-R2" id="L-Q2-R2-0" d="M3358.57,330.918L3367.546,330.918C3376.521,330.918,3394.471,330.918,3406.73,330.918C3418.989,330.918,3425.555,330.918,3428.839,330.918L3432.122,330.918"></path><path marker-end="url(#graph-div_flowchart-pointEnd)" style="fill:none;" class="edge-thickness-normal edge-pattern-solid flowchart-link LS-R2 LE-S2" id="L-R2-S2-0" d="M3614.484,330.918L3618.651,330.918C3622.818,330.918,3631.151,330.918,3638.601,330.918C3646.051,330.918,3652.618,330.918,3655.901,330.918L3659.184,330.918"></path><path marker-end="url(#graph-div_flowchart-pointEnd)" style="fill:none;" class="edge-thickness-normal edge-pattern-solid flowchart-link LS-S2 LE-T2" id="L-S2-T2-0" d="M3793.922,330.918L3798.089,330.918C3802.255,330.918,3810.589,330.918,3818.039,330.918C3825.489,330.918,3832.055,330.918,3835.339,330.918L3838.622,330.918"></path><path marker-end="url(#graph-div_flowchart-pointEnd)" style="fill:none;" class="edge-thickness-normal edge-pattern-solid flowchart-link LS-T2 LE-U2" id="L-T2-U2-0" d="M3969.078,330.918L3973.245,330.918C3977.411,330.918,3985.745,330.918,3993.278,330.984C4000.812,331.05,4007.545,331.182,4010.912,331.248L4014.279,331.314"></path><path marker-end="url(#graph-div_flowchart-pointEnd)" style="fill:none;" class="edge-thickness-normal edge-pattern-solid flowchart-link LS-U2 LE-V2" id="L-U2-V2-0" d="M4146.25,331.418L4153.943,331.335C4161.635,331.251,4177.021,331.085,4191.606,331.001C4206.192,330.918,4219.977,330.918,4226.87,330.918L4233.763,330.918"></path><path marker-end="url(#graph-div_flowchart-pointEnd)" style="fill:none;" class="edge-thickness-normal edge-pattern-solid flowchart-link LS-V2 LE-W2" id="L-V2-W2-0" d="M4420.891,330.918L4425.057,330.918C4429.224,330.918,4437.557,330.918,4445.007,330.918C4452.457,330.918,4459.024,330.918,4462.307,330.918L4465.591,330.918"></path><path marker-end="url(#graph-div_flowchart-pointEnd)" style="fill:none;" class="edge-thickness-normal edge-pattern-solid flowchart-link LS-U2 LE-D2" id="L-U2-D2-0" d="M4110.765,366.903L4124.372,384.262C4137.979,401.621,4165.193,436.34,4188.723,452.545C4212.253,468.75,4232.1,466.442,4242.023,465.288L4251.946,464.134"></path><path marker-end="url(#graph-div_flowchart-pointEnd)" style="fill:none;" class="edge-thickness-normal edge-pattern-solid flowchart-link LS-D2 LE-X2" id="L-D2-X2-0" d="M4402.742,455.059L4409.934,455.059C4417.125,455.059,4431.508,455.059,4445.037,455.059C4458.567,455.059,4471.243,455.059,4477.581,455.059L4483.919,455.059"></path></g><g class="edgeLabels"><g class="edgeLabel"><g transform="translate(0, 0)" class="label"><foreignObject height="0" width="0"><div style="display: inline-block; white-space: nowrap;" xmlns="http://www.w3.org/1999/xhtml"><span class="edgeLabel"></span></div></foreignObject></g></g><g class="edgeLabel"><g transform="translate(0, 0)" class="label"><foreignObject height="0" width="0"><div style="display: inline-block; white-space: nowrap;" xmlns="http://www.w3.org/1999/xhtml"><span class="edgeLabel"></span></div></foreignObject></g></g><g transform="translate(2450.640625, 439.05859375)" class="edgeLabel"><g transform="translate(-21.65625, -12)" class="label"><foreignObject height="24" width="43.3125"><div style="display: inline-block; white-space: nowrap;" xmlns="http://www.w3.org/1999/xhtml"><span class="edgeLabel">Không</span></div></foreignObject></g></g><g transform="translate(598.953125, 201.22265625)" class="edgeLabel"><g transform="translate(-9.078125, -12)" class="label"><foreignObject height="24" width="18.15625"><div style="display: inline-block; white-space: nowrap;" xmlns="http://www.w3.org/1999/xhtml"><span class="edgeLabel">Có</span></div></foreignObject></g></g><g transform="translate(2160.5625, 100.22265625)" class="edgeLabel"><g transform="translate(-21.65625, -12)" class="label"><foreignObject height="24" width="43.3125"><div style="display: inline-block; white-space: nowrap;" xmlns="http://www.w3.org/1999/xhtml"><span class="edgeLabel">Không</span></div></foreignObject></g></g><g class="edgeLabel"><g transform="translate(0, 0)" class="label"><foreignObject height="0" width="0"><div style="display: inline-block; white-space: nowrap;" xmlns="http://www.w3.org/1999/xhtml"><span class="edgeLabel"></span></div></foreignObject></g></g><g transform="translate(833, 255.09375)" class="edgeLabel"><g transform="translate(-9.078125, -12)" class="label"><foreignObject height="24" width="18.15625"><div style="display: inline-block; white-space: nowrap;" xmlns="http://www.w3.org/1999/xhtml"><span class="edgeLabel">Có</span></div></foreignObject></g></g><g class="edgeLabel"><g transform="translate(0, 0)" class="label"><foreignObject height="0" width="0"><div style="display: inline-block; white-space: nowrap;" xmlns="http://www.w3.org/1999/xhtml"><span class="edgeLabel"></span></div></foreignObject></g></g><g class="edgeLabel"><g transform="translate(0, 0)" class="label"><foreignObject height="0" width="0"><div style="display: inline-block; white-space: nowrap;" xmlns="http://www.w3.org/1999/xhtml"><span class="edgeLabel"></span></div></foreignObject></g></g><g class="edgeLabel"><g transform="translate(0, 0)" class="label"><foreignObject height="0" width="0"><div style="display: inline-block; white-space: nowrap;" xmlns="http://www.w3.org/1999/xhtml"><span class="edgeLabel"></span></div></foreignObject></g></g><g class="edgeLabel"><g transform="translate(0, 0)" class="label"><foreignObject height="0" width="0"><div style="display: inline-block; white-space: nowrap;" xmlns="http://www.w3.org/1999/xhtml"><span class="edgeLabel"></span></div></foreignObject></g></g><g class="edgeLabel"><g transform="translate(0, 0)" class="label"><foreignObject height="0" width="0"><div style="display: inline-block; white-space: nowrap;" xmlns="http://www.w3.org/1999/xhtml"><span class="edgeLabel"></span></div></foreignObject></g></g><g class="edgeLabel"><g transform="translate(0, 0)" class="label"><foreignObject height="0" width="0"><div style="display: inline-block; white-space: nowrap;" xmlns="http://www.w3.org/1999/xhtml"><span class="edgeLabel"></span></div></foreignObject></g></g><g transform="translate(2781.0390625, 170.09375)" class="edgeLabel"><g transform="translate(-21.65625, -12)" class="label"><foreignObject height="24" width="43.3125"><div style="display: inline-block; white-space: nowrap;" xmlns="http://www.w3.org/1999/xhtml"><span class="edgeLabel">Không</span></div></foreignObject></g></g><g class="edgeLabel"><g transform="translate(0, 0)" class="label"><foreignObject height="0" width="0"><div style="display: inline-block; white-space: nowrap;" xmlns="http://www.w3.org/1999/xhtml"><span class="edgeLabel"></span></div></foreignObject></g></g><g class="edgeLabel"><g transform="translate(0, 0)" class="label"><foreignObject height="0" width="0"><div style="display: inline-block; white-space: nowrap;" xmlns="http://www.w3.org/1999/xhtml"><span class="edgeLabel"></span></div></foreignObject></g></g><g transform="translate(2450.640625, 308.91796875)" class="edgeLabel"><g transform="translate(-9.078125, -12)" class="label"><foreignObject height="24" width="18.15625"><div style="display: inline-block; white-space: nowrap;" xmlns="http://www.w3.org/1999/xhtml"><span class="edgeLabel">Có</span></div></foreignObject></g></g><g class="edgeLabel"><g transform="translate(0, 0)" class="label"><foreignObject height="0" width="0"><div style="display: inline-block; white-space: nowrap;" xmlns="http://www.w3.org/1999/xhtml"><span class="edgeLabel"></span></div></foreignObject></g></g><g class="edgeLabel"><g transform="translate(0, 0)" class="label"><foreignObject height="0" width="0"><div style="display: inline-block; white-space: nowrap;" xmlns="http://www.w3.org/1999/xhtml"><span class="edgeLabel"></span></div></foreignObject></g></g><g transform="translate(3115.90625, 258.41796875)" class="edgeLabel"><g transform="translate(-21.65625, -12)" class="label"><foreignObject height="24" width="43.3125"><div style="display: inline-block; white-space: nowrap;" xmlns="http://www.w3.org/1999/xhtml"><span class="edgeLabel">Không</span></div></foreignObject></g></g><g transform="translate(3115.90625, 330.91796875)" class="edgeLabel"><g transform="translate(-9.078125, -12)" class="label"><foreignObject height="24" width="18.15625"><div style="display: inline-block; white-space: nowrap;" xmlns="http://www.w3.org/1999/xhtml"><span class="edgeLabel">Có</span></div></foreignObject></g></g><g class="edgeLabel"><g transform="translate(0, 0)" class="label"><foreignObject height="0" width="0"><div style="display: inline-block; white-space: nowrap;" xmlns="http://www.w3.org/1999/xhtml"><span class="edgeLabel"></span></div></foreignObject></g></g><g class="edgeLabel"><g transform="translate(0, 0)" class="label"><foreignObject height="0" width="0"><div style="display: inline-block; white-space: nowrap;" xmlns="http://www.w3.org/1999/xhtml"><span class="edgeLabel"></span></div></foreignObject></g></g><g class="edgeLabel"><g transform="translate(0, 0)" class="label"><foreignObject height="0" width="0"><div style="display: inline-block; white-space: nowrap;" xmlns="http://www.w3.org/1999/xhtml"><span class="edgeLabel"></span></div></foreignObject></g></g><g class="edgeLabel"><g transform="translate(0, 0)" class="label"><foreignObject height="0" width="0"><div style="display: inline-block; white-space: nowrap;" xmlns="http://www.w3.org/1999/xhtml"><span class="edgeLabel"></span></div></foreignObject></g></g><g transform="translate(4192.40625, 330.91796875)" class="edgeLabel"><g transform="translate(-21.65625, -12)" class="label"><foreignObject height="24" width="43.3125"><div style="display: inline-block; white-space: nowrap;" xmlns="http://www.w3.org/1999/xhtml"><span class="edgeLabel">Không</span></div></foreignObject></g></g><g class="edgeLabel"><g transform="translate(0, 0)" class="label"><foreignObject height="0" width="0"><div style="display: inline-block; white-space: nowrap;" xmlns="http://www.w3.org/1999/xhtml"><span class="edgeLabel"></span></div></foreignObject></g></g><g transform="translate(4192.40625, 471.05859375)" class="edgeLabel"><g transform="translate(-9.078125, -12)" class="label"><foreignObject height="24" width="18.15625"><div style="display: inline-block; white-space: nowrap;" xmlns="http://www.w3.org/1999/xhtml"><span class="edgeLabel">Có</span></div></foreignObject></g></g><g class="edgeLabel"><g transform="translate(0, 0)" class="label"><foreignObject height="0" width="0"><div style="display: inline-block; white-space: nowrap;" xmlns="http://www.w3.org/1999/xhtml"><span class="edgeLabel"></span></div></foreignObject></g></g></g><g class="nodes"><g transform="translate(273.140625, 260.1953125)" data-id="B2" data-node="true" id="flowchart-B2-20059" class="node default default flowchart-label"><rect height="39" width="152.09375" y="-19.5" x="-76.046875" ry="0" rx="0" style="" class="basic label-container"></rect><g transform="translate(-68.546875, -12)" style="" class="label"><rect></rect><foreignObject height="24" width="137.09375"><div style="display: inline-block; white-space: nowrap;" xmlns="http://www.w3.org/1999/xhtml"><span class="nodeLabel">SecurityFilterChain</span></div></foreignObject></g></g><g transform="translate(90.046875, 260.1953125)" data-id="A2" data-node="true" id="flowchart-A2-20058" class="node default default flowchart-label"><rect height="39" width="114.09375" y="-19.5" x="-57.046875" ry="0" rx="0" style="" class="basic label-container"></rect><g transform="translate(-49.546875, -12)" style="" class="label"><rect></rect><foreignObject height="24" width="99.09375"><div style="display: inline-block; white-space: nowrap;" xmlns="http://www.w3.org/1999/xhtml"><span class="nodeLabel">HTTP Request</span></div></foreignObject></g></g><g transform="translate(482.03125, 260.1953125)" data-id="C2" data-node="true" id="flowchart-C2-20061" class="node default default flowchart-label"><polygon style="" transform="translate(-82.84375,82.84375)" class="label-container" points="82.84375,0 165.6875,-82.84375 82.84375,-165.6875 0,-82.84375"></polygon><g transform="translate(-43.84375, -24)" style="" class="label"><rect></rect><foreignObject height="48" width="87.6875"><div style="display: inline-block; white-space: nowrap;" xmlns="http://www.w3.org/1999/xhtml"><span class="nodeLabel">Request cần<br/>xác thực?</span></div></foreignObject></g></g><g transform="translate(4329.9765625, 455.05859375)" data-id="D2" data-node="true" id="flowchart-D2-20063" class="node default default flowchart-label"><rect height="39" width="145.53125" y="-19.5" x="-72.765625" ry="0" rx="0" style="" class="basic label-container"></rect><g transform="translate(-65.265625, -12)" style="" class="label"><rect></rect><foreignObject height="24" width="130.53125"><div style="display: inline-block; white-space: nowrap;" xmlns="http://www.w3.org/1999/xhtml"><span class="nodeLabel">Truy cập Resource</span></div></foreignObject></g></g><g transform="translate(715.9765625, 201.22265625)" data-id="E2" data-node="true" id="flowchart-E2-20065" class="node default default flowchart-label"><polygon style="" transform="translate(-82.9453125,82.9453125)" class="label-container" points="82.9453125,0 165.890625,-82.9453125 82.9453125,-165.890625 0,-82.9453125"></polygon><g transform="translate(-43.9453125, -24)" style="" class="label"><rect></rect><foreignObject height="48" width="87.890625"><div style="display: inline-block; white-space: nowrap;" xmlns="http://www.w3.org/1999/xhtml"><span class="nodeLabel">Có thông tin<br/>đăng nhập?</span></div></foreignObject></g></g><g transform="translate(3525.953125, 100.22265625)" data-id="F2" data-node="true" id="flowchart-F2-20067" class="node default default flowchart-label"><rect height="63" width="123.171875" y="-31.5" x="-61.5859375" ry="0" rx="0" style="" class="basic label-container"></rect><g transform="translate(-54.0859375, -24)" style="" class="label"><rect></rect><foreignObject height="48" width="108.171875"><div style="display: inline-block; white-space: nowrap;" xmlns="http://www.w3.org/1999/xhtml"><span class="nodeLabel">HttpBasic hoặc<br/>FormLogin</span></div></foreignObject></g></g><g transform="translate(3729.203125, 150.72265625)" data-id="G2" data-node="true" id="flowchart-G2-20069" class="node default default flowchart-label"><rect height="63" width="113.90625" y="-31.5" x="-56.953125" ry="0" rx="0" style="" class="basic label-container"></rect><g transform="translate(-49.453125, -24)" style="" class="label"><rect></rect><foreignObject height="48" width="98.90625"><div style="display: inline-block; white-space: nowrap;" xmlns="http://www.w3.org/1999/xhtml"><span class="nodeLabel">Hiển thị Form<br/>đăng nhập</span></div></foreignObject></g></g><g transform="translate(1015.21875, 255.09375)" data-id="H2" data-node="true" id="flowchart-H2-20071" class="node default default flowchart-label"><rect height="39" width="296.28125" y="-19.5" x="-148.140625" ry="0" rx="0" style="" class="basic label-container"></rect><g transform="translate(-140.640625, -12)" style="" class="label"><rect></rect><foreignObject height="24" width="281.28125"><div style="display: inline-block; white-space: nowrap;" xmlns="http://www.w3.org/1999/xhtml"><span class="nodeLabel">UsernamePasswordAuthenticationFilter</span></div></foreignObject></g></g><g transform="translate(1280.421875, 255.09375)" data-id="I2" data-node="true" id="flowchart-I2-20073" class="node default default flowchart-label"><rect height="39" width="134.125" y="-19.5" x="-67.0625" ry="0" rx="0" style="" class="basic label-container"></rect><g transform="translate(-59.5625, -12)" style="" class="label"><rect></rect><foreignObject height="24" width="119.125"><div style="display: inline-block; white-space: nowrap;" xmlns="http://www.w3.org/1999/xhtml"><span class="nodeLabel">ProviderManager</span></div></foreignObject></g></g><g transform="translate(1501.109375, 255.09375)" data-id="J2" data-node="true" id="flowchart-J2-20075" class="node default default flowchart-label"><rect height="39" width="207.25" y="-19.5" x="-103.625" ry="0" rx="0" style="" class="basic label-container"></rect><g transform="translate(-96.125, -12)" style="" class="label"><rect></rect><foreignObject height="24" width="192.25"><div style="display: inline-block; white-space: nowrap;" xmlns="http://www.w3.org/1999/xhtml"><span class="nodeLabel">DaoAuthenticationProvider</span></div></foreignObject></g></g><g transform="translate(1772.796875, 255.09375)" data-id="K2" data-node="true" id="flowchart-K2-20077" class="node default default flowchart-label"><rect height="63" width="236.125" y="-31.5" x="-118.0625" ry="0" rx="0" style="" class="basic label-container"></rect><g transform="translate(-110.5625, -24)" style="" class="label"><rect></rect><foreignObject height="48" width="221.125"><div style="display: inline-block; white-space: nowrap;" xmlns="http://www.w3.org/1999/xhtml"><span class="nodeLabel">CustomUserDetailsService<br/>implements UserDetailsService</span></div></foreignObject></g></g><g transform="translate(2001.7421875, 255.09375)" data-id="K2A" data-node="true" id="flowchart-K2A-20079" class="node default default flowchart-label"><rect height="63" width="121.765625" y="-31.5" x="-60.8828125" ry="0" rx="0" style="" class="basic label-container"></rect><g transform="translate(-53.3828125, -24)" style="" class="label"><rect></rect><foreignObject height="48" width="106.765625"><div style="display: inline-block; white-space: nowrap;" xmlns="http://www.w3.org/1999/xhtml"><span class="nodeLabel">UserRepository<br/>JPA/JDBC</span></div></foreignObject></g></g><g transform="translate(2160.5625, 255.09375)" data-id="K2B" data-node="true" id="flowchart-K2B-20081" class="node default default flowchart-label"><path transform="translate(-47.9375,-47.77758913412564)" d="M 0,10.85172608941709 a 47.9375,10.85172608941709 0,0,0 95.875 0 a 47.9375,10.85172608941709 0,0,0 -95.875 0 l 0,73.8517260894171 a 47.9375,10.85172608941709 0,0,0 95.875 0 l 0,-73.8517260894171" style=""></path><g transform="translate(-40.4375, -24)" style="" class="label"><rect></rect><foreignObject height="48" width="80.875"><div style="display: inline-block; white-space: nowrap;" xmlns="http://www.w3.org/1999/xhtml"><span class="nodeLabel">Database<br/>Users Table</span></div></foreignObject></g></g><g transform="translate(2331.2421875, 255.09375)" data-id="L2" data-node="true" id="flowchart-L2-20083" class="node default default flowchart-label"><polygon style="" transform="translate(-72.7421875,72.7421875)" class="label-container" points="72.7421875,0 145.484375,-72.7421875 72.7421875,-145.484375 0,-72.7421875"></polygon><g transform="translate(-33.7421875, -24)" style="" class="label"><rect></rect><foreignObject height="48" width="67.484375"><div style="display: inline-block; white-space: nowrap;" xmlns="http://www.w3.org/1999/xhtml"><span class="nodeLabel">Tìm User<br/>trong DB?</span></div></foreignObject></g></g><g transform="translate(3274.9921875, 204.59375)" data-id="M2" data-node="true" id="flowchart-M2-20085" class="node default default flowchart-label"><rect height="39" width="224.859375" y="-19.5" x="-112.4296875" ry="0" rx="0" style="" class="basic label-container"></rect><g transform="translate(-104.9296875, -12)" style="" class="label"><rect></rect><foreignObject height="24" width="209.859375"><div style="display: inline-block; white-space: nowrap;" xmlns="http://www.w3.org/1999/xhtml"><span class="nodeLabel">UsernameNotFoundException</span></div></foreignObject></g></g><g transform="translate(3525.953125, 204.59375)" data-id="N2" data-node="true" id="flowchart-N2-20087" class="node default default flowchart-label"><rect height="39" width="120.96875" y="-19.5" x="-60.484375" ry="0" rx="0" style="" class="basic label-container"></rect><g transform="translate(-52.984375, -12)" style="" class="label"><rect></rect><foreignObject height="24" width="105.96875"><div style="display: inline-block; white-space: nowrap;" xmlns="http://www.w3.org/1999/xhtml"><span class="nodeLabel">FailureHandler</span></div></foreignObject></g></g><g transform="translate(2567.7109375, 308.91796875)" data-id="O2" data-node="true" id="flowchart-O2-20091" class="node default default flowchart-label"><rect height="63" width="140.828125" y="-31.5" x="-70.4140625" ry="0" rx="0" style="" class="basic label-container"></rect><g transform="translate(-62.9140625, -24)" style="" class="label"><rect></rect><foreignObject height="48" width="125.828125"><div style="display: inline-block; white-space: nowrap;" xmlns="http://www.w3.org/1999/xhtml"><span class="nodeLabel">Load User + Roles<br/>từ Database</span></div></foreignObject></g></g><g transform="translate(2781.0390625, 308.91796875)" data-id="O2A" data-node="true" id="flowchart-O2A-20093" class="node default default flowchart-label"><rect height="39" width="185.828125" y="-19.5" x="-92.9140625" ry="0" rx="0" style="" class="basic label-container"></rect><g transform="translate(-85.4140625, -12)" style="" class="label"><rect></rect><foreignObject height="24" width="170.828125"><div style="display: inline-block; white-space: nowrap;" xmlns="http://www.w3.org/1999/xhtml"><span class="nodeLabel">BCryptPasswordEncoder</span></div></foreignObject></g></g><g transform="translate(2996.6015625, 308.91796875)" data-id="P2" data-node="true" id="flowchart-P2-20095" class="node default default flowchart-label"><polygon style="" transform="translate(-72.6484375,72.6484375)" class="label-container" points="72.6484375,0 145.296875,-72.6484375 72.6484375,-145.296875 0,-72.6484375"></polygon><g transform="translate(-33.6484375, -24)" style="" class="label"><rect></rect><foreignObject height="48" width="67.296875"><div style="display: inline-block; white-space: nowrap;" xmlns="http://www.w3.org/1999/xhtml"><span class="nodeLabel">Mật khẩu<br/>đúng?</span></div></foreignObject></g></g><g transform="translate(3274.9921875, 330.91796875)" data-id="Q2" data-node="true" id="flowchart-Q2-20099" class="node default default flowchart-label"><rect height="63" width="167.15625" y="-31.5" x="-83.578125" ry="0" rx="0" style="" class="basic label-container"></rect><g transform="translate(-76.078125, -24)" style="" class="label"><rect></rect><foreignObject height="48" width="152.15625"><div style="display: inline-block; white-space: nowrap;" xmlns="http://www.w3.org/1999/xhtml"><span class="nodeLabel">Authentication Token<br/>với Authorities từ DB</span></div></foreignObject></g></g><g transform="translate(3525.953125, 330.91796875)" data-id="R2" data-node="true" id="flowchart-R2-20101" class="node default default flowchart-label"><rect height="39" width="177.0625" y="-19.5" x="-88.53125" ry="0" rx="0" style="" class="basic label-container"></rect><g transform="translate(-81.03125, -12)" style="" class="label"><rect></rect><foreignObject height="24" width="162.0625"><div style="display: inline-block; white-space: nowrap;" xmlns="http://www.w3.org/1999/xhtml"><span class="nodeLabel">SecurityContextHolder</span></div></foreignObject></g></g><g transform="translate(3729.203125, 330.91796875)" data-id="S2" data-node="true" id="flowchart-S2-20103" class="node default default flowchart-label"><rect height="39" width="129.4375" y="-19.5" x="-64.71875" ry="0" rx="0" style="" class="basic label-container"></rect><g transform="translate(-57.21875, -12)" style="" class="label"><rect></rect><foreignObject height="24" width="114.4375"><div style="display: inline-block; white-space: nowrap;" xmlns="http://www.w3.org/1999/xhtml"><span class="nodeLabel">SecurityContext</span></div></foreignObject></g></g><g transform="translate(3906.5, 330.91796875)" data-id="T2" data-node="true" id="flowchart-T2-20105" class="node default default flowchart-label"><rect height="39" width="125.15625" y="-19.5" x="-62.578125" ry="0" rx="0" style="" class="basic label-container"></rect><g transform="translate(-55.078125, -12)" style="" class="label"><rect></rect><foreignObject height="24" width="110.15625"><div style="display: inline-block; white-space: nowrap;" xmlns="http://www.w3.org/1999/xhtml"><span class="nodeLabel">SuccessHandler</span></div></foreignObject></g></g><g transform="translate(4082.4140625, 330.91796875)" data-id="U2" data-node="true" id="flowchart-U2-20107" class="node default default flowchart-label"><polygon style="" transform="translate(-63.3359375,63.3359375)" class="label-container" points="63.3359375,0 126.671875,-63.3359375 63.3359375,-126.671875 0,-63.3359375"></polygon><g transform="translate(-36.3359375, -12)" style="" class="label"><rect></rect><foreignObject height="24" width="72.671875"><div style="display: inline-block; white-space: nowrap;" xmlns="http://www.w3.org/1999/xhtml"><span class="nodeLabel">Có quyền?</span></div></foreignObject></g></g><g transform="translate(4329.9765625, 330.91796875)" data-id="V2" data-node="true" id="flowchart-V2-20109" class="node default default flowchart-label"><rect height="39" width="181.828125" y="-19.5" x="-90.9140625" ry="0" rx="0" style="" class="basic label-container"></rect><g transform="translate(-83.4140625, -12)" style="" class="label"><rect></rect><foreignObject height="24" width="166.828125"><div style="display: inline-block; white-space: nowrap;" xmlns="http://www.w3.org/1999/xhtml"><span class="nodeLabel">AccessDeniedException</span></div></foreignObject></g></g><g transform="translate(4529.375, 330.91796875)" data-id="W2" data-node="true" id="flowchart-W2-20111" class="node default default flowchart-label"><rect height="39" width="116.96875" y="-19.5" x="-58.484375" ry="0" rx="0" style="" class="basic label-container"></rect><g transform="translate(-50.984375, -12)" style="" class="label"><rect></rect><foreignObject height="24" width="101.96875"><div style="display: inline-block; white-space: nowrap;" xmlns="http://www.w3.org/1999/xhtml"><span class="nodeLabel">403 Forbidden</span></div></foreignObject></g></g><g transform="translate(4529.375, 455.05859375)" data-id="X2" data-node="true" id="flowchart-X2-20115" class="node default default flowchart-label"><rect height="39" width="80.3125" y="-19.5" x="-40.15625" ry="0" rx="0" style="" class="basic label-container"></rect><g transform="translate(-32.65625, -12)" style="" class="label"><rect></rect><foreignObject height="24" width="65.3125"><div style="display: inline-block; white-space: nowrap;" xmlns="http://www.w3.org/1999/xhtml"><span class="nodeLabel">Response</span></div></foreignObject></g></g></g></g></g></g></g></svg>